# xmcd
# Track frame offsets:
# 150
# 11840
# 24992
# 42395
# 54092
# 66207
# 78970
# 96730
# 106582
# 121445
# 134182
# 144965
# 159312
# 173057
# 184430
# 198570
# 209775
# 226355
# 238905
# 250817
#
# Disc length: 3523 seconds
# Revision: 0
# Processed by: cddbd v1.5.1PL2 Copyright (c) Steve Scherf et al.
# Submitted via: VisiTrax 2.9.10.228 - For more info visit www.synapsa.com
#
DISCID=220dc114
DTITLE=Various Artist - The Very Best Of Country Music
DYEAR=1994
DGENRE=
TTITLE0=Patsy Cline - Sweet Dreams (Of You)
TTITLE1=Hank Locklin - Please Help Me I'm Falling
TTITLE2=Billie Jo Spears - Blanket On The Ground
TTITLE3=Waylon Jennings - Crying
TTITLE4=Dolly Parton - The Bargain Store
TTITLE5=Buddy Holly - True Love Ways
TTITLE6=Lee Greenwood - The Wind Beneath My  Wings
TTITLE7=Ray Stevens - Turn Your Radio On
TTITLE8=The Desert Rose Band - No One Else
TTITLE9=Hank Williams Junior - Women I've Never Had
TTITLE10=Jim Reeves - He'll Have To Go
TTITLE11=The Bellamy Brothers - If I Said You Had A Beautiful Body (Would You H
TTITLE11=old It Against Me)
TTITLE12=Don Williams - Stay Young
TTITLE13=Marty Robbins - Pretend
TTITLE14=Charley Pride - I'm So Afraid Of Losing You Again
TTITLE15=Eddy Arnold - Turn The World Around The Other Way
TTITLE16=Alabama - Touch Me When We're Dancing
TTITLE17=Hank Snow - I've Been Everywhere
TTITLE18=Conway Twitty and Loretta Lynn - After The Fire Is Gone
TTITLE19=Merle Haggard - Sometimes I Dream
EXTD=
EXTT0=
EXTT1=
EXTT2=
EXTT3=
EXTT4=
EXTT5=
EXTT6=
EXTT7=
EXTT8=
EXTT9=
EXTT10=
EXTT11=
EXTT12=
EXTT13=
EXTT14=
EXTT15=
EXTT16=
EXTT17=
EXTT18=
EXTT19=
PLAYORDER=
